<mxfile host="app.diagrams.net" modified="2023-11-27T19:33:48.457Z" agent="Mozilla/5.0 (Windows NT 10.0; Win64; x64) AppleWebKit/537.36 (KHTML, like Gecko) Chrome/116.0.0.0 Safari/537.36" etag="hWvxcYHD7tN33QneaTl0" version="22.1.4" type="device">
  <diagram name="Page-1" id="6CLtB3pnRjCWs52u8YJo">
    <mxGraphModel dx="1006" dy="559" grid="1" gridSize="10" guides="1" tooltips="1" connect="1" arrows="1" fold="1" page="1" pageScale="1" pageWidth="827" pageHeight="1169" math="0" shadow="0">
      <root>
        <mxCell id="0" />
        <mxCell id="1" parent="0" />
        <mxCell id="u5osYMCwe0hQFw7U-F_8-1" value="" style="edgeStyle=orthogonalEdgeStyle;rounded=0;orthogonalLoop=1;jettySize=auto;html=1;" edge="1" parent="1" source="u5osYMCwe0hQFw7U-F_8-2" target="u5osYMCwe0hQFw7U-F_8-4">
          <mxGeometry relative="1" as="geometry" />
        </mxCell>
        <mxCell id="u5osYMCwe0hQFw7U-F_8-2" value="start" style="ellipse;whiteSpace=wrap;html=1;" vertex="1" parent="1">
          <mxGeometry x="210" y="50" width="120" height="80" as="geometry" />
        </mxCell>
        <mxCell id="u5osYMCwe0hQFw7U-F_8-3" value="" style="edgeStyle=orthogonalEdgeStyle;rounded=0;orthogonalLoop=1;jettySize=auto;html=1;" edge="1" parent="1" source="u5osYMCwe0hQFw7U-F_8-4" target="u5osYMCwe0hQFw7U-F_8-7">
          <mxGeometry relative="1" as="geometry" />
        </mxCell>
        <mxCell id="u5osYMCwe0hQFw7U-F_8-4" value="input str" style="shape=parallelogram;perimeter=parallelogramPerimeter;whiteSpace=wrap;html=1;fixedSize=1;" vertex="1" parent="1">
          <mxGeometry x="210" y="180" width="120" height="60" as="geometry" />
        </mxCell>
        <mxCell id="u5osYMCwe0hQFw7U-F_8-5" value="" style="edgeStyle=orthogonalEdgeStyle;rounded=0;orthogonalLoop=1;jettySize=auto;html=1;" edge="1" parent="1" source="u5osYMCwe0hQFw7U-F_8-7" target="u5osYMCwe0hQFw7U-F_8-10">
          <mxGeometry relative="1" as="geometry" />
        </mxCell>
        <mxCell id="u5osYMCwe0hQFw7U-F_8-6" value="" style="edgeStyle=orthogonalEdgeStyle;rounded=0;orthogonalLoop=1;jettySize=auto;html=1;" edge="1" parent="1" source="u5osYMCwe0hQFw7U-F_8-7" target="u5osYMCwe0hQFw7U-F_8-35">
          <mxGeometry relative="1" as="geometry" />
        </mxCell>
        <mxCell id="u5osYMCwe0hQFw7U-F_8-7" value="i=0&lt;br&gt;j=i+1" style="whiteSpace=wrap;html=1;" vertex="1" parent="1">
          <mxGeometry x="210" y="320" width="120" height="60" as="geometry" />
        </mxCell>
        <mxCell id="u5osYMCwe0hQFw7U-F_8-8" value="" style="edgeStyle=orthogonalEdgeStyle;rounded=0;orthogonalLoop=1;jettySize=auto;html=1;" edge="1" parent="1" source="u5osYMCwe0hQFw7U-F_8-18" target="u5osYMCwe0hQFw7U-F_8-13">
          <mxGeometry relative="1" as="geometry" />
        </mxCell>
        <mxCell id="u5osYMCwe0hQFw7U-F_8-9" style="edgeStyle=orthogonalEdgeStyle;rounded=0;orthogonalLoop=1;jettySize=auto;html=1;entryX=0.5;entryY=0;entryDx=0;entryDy=0;" edge="1" parent="1" source="u5osYMCwe0hQFw7U-F_8-10" target="u5osYMCwe0hQFw7U-F_8-40">
          <mxGeometry relative="1" as="geometry" />
        </mxCell>
        <mxCell id="u5osYMCwe0hQFw7U-F_8-10" value="i&amp;lt;strlen(str) -&amp;nbsp; 1" style="rhombus;whiteSpace=wrap;html=1;" vertex="1" parent="1">
          <mxGeometry x="380" y="310" width="110" height="80" as="geometry" />
        </mxCell>
        <mxCell id="u5osYMCwe0hQFw7U-F_8-11" value="" style="edgeStyle=orthogonalEdgeStyle;rounded=0;orthogonalLoop=1;jettySize=auto;html=1;" edge="1" parent="1" source="u5osYMCwe0hQFw7U-F_8-13" target="u5osYMCwe0hQFw7U-F_8-16">
          <mxGeometry relative="1" as="geometry" />
        </mxCell>
        <mxCell id="u5osYMCwe0hQFw7U-F_8-12" style="edgeStyle=orthogonalEdgeStyle;rounded=0;orthogonalLoop=1;jettySize=auto;html=1;entryX=0.5;entryY=1;entryDx=0;entryDy=0;" edge="1" parent="1" source="u5osYMCwe0hQFw7U-F_8-13" target="u5osYMCwe0hQFw7U-F_8-30">
          <mxGeometry relative="1" as="geometry">
            <Array as="points">
              <mxPoint x="740" y="510" />
              <mxPoint x="1590" y="510" />
            </Array>
          </mxGeometry>
        </mxCell>
        <mxCell id="u5osYMCwe0hQFw7U-F_8-13" value="j&amp;lt;strlen(str)" style="rhombus;whiteSpace=wrap;html=1;" vertex="1" parent="1">
          <mxGeometry x="700" y="310" width="80" height="80" as="geometry" />
        </mxCell>
        <mxCell id="u5osYMCwe0hQFw7U-F_8-14" value="" style="edgeStyle=orthogonalEdgeStyle;rounded=0;orthogonalLoop=1;jettySize=auto;html=1;" edge="1" parent="1" source="u5osYMCwe0hQFw7U-F_8-16">
          <mxGeometry relative="1" as="geometry">
            <mxPoint x="980" y="350" as="targetPoint" />
          </mxGeometry>
        </mxCell>
        <mxCell id="u5osYMCwe0hQFw7U-F_8-15" style="edgeStyle=orthogonalEdgeStyle;rounded=0;orthogonalLoop=1;jettySize=auto;html=1;" edge="1" parent="1" source="u5osYMCwe0hQFw7U-F_8-16">
          <mxGeometry relative="1" as="geometry">
            <mxPoint x="860" y="510" as="targetPoint" />
          </mxGeometry>
        </mxCell>
        <mxCell id="u5osYMCwe0hQFw7U-F_8-16" value="str(i) == str(j)" style="rhombus;whiteSpace=wrap;html=1;" vertex="1" parent="1">
          <mxGeometry x="810" y="310" width="100" height="80" as="geometry" />
        </mxCell>
        <mxCell id="u5osYMCwe0hQFw7U-F_8-17" value="" style="edgeStyle=orthogonalEdgeStyle;rounded=0;orthogonalLoop=1;jettySize=auto;html=1;" edge="1" parent="1" source="u5osYMCwe0hQFw7U-F_8-10" target="u5osYMCwe0hQFw7U-F_8-18">
          <mxGeometry relative="1" as="geometry">
            <mxPoint x="500" y="350" as="sourcePoint" />
            <mxPoint x="700" y="350" as="targetPoint" />
          </mxGeometry>
        </mxCell>
        <mxCell id="u5osYMCwe0hQFw7U-F_8-18" value="count = 0" style="rounded=0;whiteSpace=wrap;html=1;" vertex="1" parent="1">
          <mxGeometry x="530" y="320" width="120" height="60" as="geometry" />
        </mxCell>
        <mxCell id="u5osYMCwe0hQFw7U-F_8-19" value="" style="edgeStyle=orthogonalEdgeStyle;rounded=0;orthogonalLoop=1;jettySize=auto;html=1;" edge="1" parent="1" source="u5osYMCwe0hQFw7U-F_8-21" target="u5osYMCwe0hQFw7U-F_8-23">
          <mxGeometry relative="1" as="geometry" />
        </mxCell>
        <mxCell id="u5osYMCwe0hQFw7U-F_8-20" style="edgeStyle=orthogonalEdgeStyle;rounded=0;orthogonalLoop=1;jettySize=auto;html=1;entryX=0.5;entryY=1;entryDx=0;entryDy=0;" edge="1" parent="1" source="u5osYMCwe0hQFw7U-F_8-21" target="u5osYMCwe0hQFw7U-F_8-26">
          <mxGeometry relative="1" as="geometry">
            <Array as="points">
              <mxPoint x="1020" y="440" />
              <mxPoint x="1390" y="440" />
            </Array>
          </mxGeometry>
        </mxCell>
        <mxCell id="u5osYMCwe0hQFw7U-F_8-21" value="max &amp;lt; count" style="rhombus;whiteSpace=wrap;html=1;" vertex="1" parent="1">
          <mxGeometry x="980" y="310" width="80" height="80" as="geometry" />
        </mxCell>
        <mxCell id="u5osYMCwe0hQFw7U-F_8-22" value="" style="edgeStyle=orthogonalEdgeStyle;rounded=0;orthogonalLoop=1;jettySize=auto;html=1;" edge="1" parent="1" source="u5osYMCwe0hQFw7U-F_8-23" target="u5osYMCwe0hQFw7U-F_8-26">
          <mxGeometry relative="1" as="geometry" />
        </mxCell>
        <mxCell id="u5osYMCwe0hQFw7U-F_8-23" value="&lt;div style=&quot;color: rgb(204, 204, 204); background-color: rgb(31, 31, 31); font-family: Consolas, &amp;quot;Courier New&amp;quot;, monospace; font-size: 14px; line-height: 19px;&quot;&gt;&lt;div&gt;max &lt;span style=&quot;color: #d4d4d4;&quot;&gt;=&lt;/span&gt; &lt;span style=&quot;color: #9cdcfe;&quot;&gt;count&lt;/span&gt;;&lt;/div&gt;&lt;div&gt;&amp;nbsp; &amp;nbsp; &amp;nbsp; &amp;nbsp; &amp;nbsp; &amp;nbsp; &amp;nbsp; &amp;nbsp; &amp;nbsp; &amp;nbsp; &lt;span style=&quot;color: #9cdcfe;&quot;&gt;temp1&lt;/span&gt; &lt;span style=&quot;color: #d4d4d4;&quot;&gt;=&lt;/span&gt; &lt;span style=&quot;color: #9cdcfe;&quot;&gt;i&lt;/span&gt;;&lt;/div&gt;&lt;div&gt;&amp;nbsp; &amp;nbsp; &amp;nbsp; &amp;nbsp; &amp;nbsp; &amp;nbsp; &amp;nbsp; &amp;nbsp; &amp;nbsp; &amp;nbsp; &lt;span style=&quot;color: #9cdcfe;&quot;&gt;temp2&lt;/span&gt; &lt;span style=&quot;color: #d4d4d4;&quot;&gt;=&lt;/span&gt; &lt;span style=&quot;color: #9cdcfe;&quot;&gt;j&lt;/span&gt;;&lt;/div&gt;&lt;/div&gt;" style="rounded=0;whiteSpace=wrap;html=1;" vertex="1" parent="1">
          <mxGeometry x="1130" y="320" width="120" height="60" as="geometry" />
        </mxCell>
        <mxCell id="u5osYMCwe0hQFw7U-F_8-24" value="true" style="text;html=1;strokeColor=none;fillColor=none;align=center;verticalAlign=middle;whiteSpace=wrap;rounded=0;" vertex="1" parent="1">
          <mxGeometry x="1060" y="310" width="60" height="30" as="geometry" />
        </mxCell>
        <mxCell id="u5osYMCwe0hQFw7U-F_8-25" value="" style="edgeStyle=orthogonalEdgeStyle;rounded=0;orthogonalLoop=1;jettySize=auto;html=1;" edge="1" parent="1" source="u5osYMCwe0hQFw7U-F_8-26" target="u5osYMCwe0hQFw7U-F_8-30">
          <mxGeometry relative="1" as="geometry" />
        </mxCell>
        <mxCell id="u5osYMCwe0hQFw7U-F_8-26" value="break;" style="whiteSpace=wrap;html=1;rounded=0;" vertex="1" parent="1">
          <mxGeometry x="1330" y="320" width="120" height="60" as="geometry" />
        </mxCell>
        <mxCell id="u5osYMCwe0hQFw7U-F_8-27" value="false&lt;br&gt;" style="text;html=1;strokeColor=none;fillColor=none;align=center;verticalAlign=middle;whiteSpace=wrap;rounded=0;" vertex="1" parent="1">
          <mxGeometry x="1040" y="400" width="60" height="30" as="geometry" />
        </mxCell>
        <mxCell id="u5osYMCwe0hQFw7U-F_8-28" value="true" style="text;html=1;strokeColor=none;fillColor=none;align=center;verticalAlign=middle;whiteSpace=wrap;rounded=0;" vertex="1" parent="1">
          <mxGeometry x="910" y="320" width="60" height="30" as="geometry" />
        </mxCell>
        <mxCell id="u5osYMCwe0hQFw7U-F_8-29" value="true" style="text;html=1;strokeColor=none;fillColor=none;align=center;verticalAlign=middle;whiteSpace=wrap;rounded=0;" vertex="1" parent="1">
          <mxGeometry x="760" y="321" width="60" height="30" as="geometry" />
        </mxCell>
        <mxCell id="u5osYMCwe0hQFw7U-F_8-30" value="i++&lt;br&gt;j++" style="rounded=0;whiteSpace=wrap;html=1;" vertex="1" parent="1">
          <mxGeometry x="1530" y="320" width="120" height="61" as="geometry" />
        </mxCell>
        <mxCell id="u5osYMCwe0hQFw7U-F_8-31" value="false" style="text;html=1;strokeColor=none;fillColor=none;align=center;verticalAlign=middle;whiteSpace=wrap;rounded=0;" vertex="1" parent="1">
          <mxGeometry x="690" y="400" width="60" height="30" as="geometry" />
        </mxCell>
        <mxCell id="u5osYMCwe0hQFw7U-F_8-32" value="false" style="text;html=1;strokeColor=none;fillColor=none;align=center;verticalAlign=middle;whiteSpace=wrap;rounded=0;" vertex="1" parent="1">
          <mxGeometry x="860" y="410" width="60" height="30" as="geometry" />
        </mxCell>
        <mxCell id="u5osYMCwe0hQFw7U-F_8-33" value="true" style="text;html=1;strokeColor=none;fillColor=none;align=center;verticalAlign=middle;whiteSpace=wrap;rounded=0;" vertex="1" parent="1">
          <mxGeometry x="480" y="320" width="60" height="30" as="geometry" />
        </mxCell>
        <mxCell id="u5osYMCwe0hQFw7U-F_8-34" value="" style="edgeStyle=orthogonalEdgeStyle;rounded=0;orthogonalLoop=1;jettySize=auto;html=1;" edge="1" parent="1" source="u5osYMCwe0hQFw7U-F_8-35" target="u5osYMCwe0hQFw7U-F_8-37">
          <mxGeometry relative="1" as="geometry" />
        </mxCell>
        <mxCell id="u5osYMCwe0hQFw7U-F_8-35" value="i=temp1" style="rounded=0;whiteSpace=wrap;html=1;" vertex="1" parent="1">
          <mxGeometry x="210" y="460" width="120" height="60" as="geometry" />
        </mxCell>
        <mxCell id="u5osYMCwe0hQFw7U-F_8-36" value="" style="edgeStyle=orthogonalEdgeStyle;rounded=0;orthogonalLoop=1;jettySize=auto;html=1;" edge="1" parent="1" source="u5osYMCwe0hQFw7U-F_8-37" target="u5osYMCwe0hQFw7U-F_8-39">
          <mxGeometry relative="1" as="geometry" />
        </mxCell>
        <mxCell id="u5osYMCwe0hQFw7U-F_8-37" value="i &amp;lt; temp2" style="rhombus;whiteSpace=wrap;html=1;" vertex="1" parent="1">
          <mxGeometry x="230" y="580" width="80" height="80" as="geometry" />
        </mxCell>
        <mxCell id="u5osYMCwe0hQFw7U-F_8-38" value="" style="edgeStyle=orthogonalEdgeStyle;rounded=0;orthogonalLoop=1;jettySize=auto;html=1;" edge="1" parent="1" source="u5osYMCwe0hQFw7U-F_8-39" target="u5osYMCwe0hQFw7U-F_8-40">
          <mxGeometry relative="1" as="geometry" />
        </mxCell>
        <mxCell id="u5osYMCwe0hQFw7U-F_8-39" value="output str[i]" style="shape=parallelogram;perimeter=parallelogramPerimeter;whiteSpace=wrap;html=1;fixedSize=1;" vertex="1" parent="1">
          <mxGeometry x="210" y="710" width="120" height="60" as="geometry" />
        </mxCell>
        <mxCell id="u5osYMCwe0hQFw7U-F_8-40" value="end" style="ellipse;whiteSpace=wrap;html=1;" vertex="1" parent="1">
          <mxGeometry x="380" y="700" width="120" height="80" as="geometry" />
        </mxCell>
        <mxCell id="u5osYMCwe0hQFw7U-F_8-41" value="false" style="text;html=1;strokeColor=none;fillColor=none;align=center;verticalAlign=middle;whiteSpace=wrap;rounded=0;" vertex="1" parent="1">
          <mxGeometry x="440" y="410" width="60" height="30" as="geometry" />
        </mxCell>
      </root>
    </mxGraphModel>
  </diagram>
</mxfile>
